<?xml version="1.0" encoding="utf-8"?>
<!-- Generator: Adobe Illustrator 16.0.0, SVG Export Plug-In . SVG Version: 6.00 Build 0)  -->
<!DOCTYPE svg PUBLIC "-//W3C//DTD SVG 1.1//EN" "http://www.w3.org/Graphics/SVG/1.1/DTD/svg11.dtd">
<svg version="1.1" id="Layer_1" xmlns="http://www.w3.org/2000/svg" xmlns:xlink="http://www.w3.org/1999/xlink" x="0px" y="0px"
	 width="412.773px" height="118.762px" viewBox="0 0 412.773 118.762" enable-background="new 0 0 412.773 118.762"
	 xml:space="preserve">
<g>
	<g>
		<path fill="#FFFFFF" d="M38.682,0L0,38.682l0.033,80.08H6.57l35.516-35.519l35.518,35.519h6.759l38.706-38.709V0H38.682z
			 M6.57,109.517V47.725L37.465,78.62L6.57,109.517z M38.87,70.782L8.019,39.93L38.87,9.054V70.782z M45.405,6.536l64.149-0.005
			l-64.149,64.15V6.536z M77.696,109.61L46.708,78.621l30.988-30.987V109.61z M116.533,77.347l-32.302,32.302V41.102l32.302-32.305
			V77.347z"/>
	</g>
	<g>
		<g>
			<g>
				<rect x="282.747" y="19.51" fill="#FFFFFF" width="54.835" height="6.526"/>
			</g>
		</g>
		<g>
			<g>
				<polygon fill="#FFFFFF" points="215.508,35.268 215.508,81.557 171.326,35.268 168.471,35.268 168.471,97.928 176.283,97.928 
					176.283,51.224 220.86,97.928 223.319,97.928 223.319,35.268 				"/>
			</g>
			<path fill="#FFFFFF" d="M237.864,35.268v36.981c0,10.222,3.074,19.695,15.125,19.695c12.05,0,15.124-9.474,15.124-19.695V35.268
				h7.812v39.64c0,13.796-8.56,24.35-22.937,24.35c-14.378,0-22.938-10.554-22.938-24.35v-39.64H237.864z"/>
			<path fill="#FFFFFF" d="M407.066,66.599c0,18.614-14.709,32.659-32.825,32.659c-18.117,0-32.826-14.045-32.826-32.659
				c0-17.951,14.876-32.66,32.826-32.66S407.066,48.648,407.066,66.599z M399.256,66.599c0-13.796-10.306-25.347-25.015-25.347
				s-25.014,11.551-25.014,25.347c0,14.294,11.468,25.346,25.014,25.346S399.256,80.893,399.256,66.599z"/>
			<path fill="#FFFFFF" d="M412.773,94.438c0,2.659-2.161,4.82-4.82,4.82s-4.82-2.161-4.82-4.82c0-2.575,2.161-4.82,4.82-4.82
				S412.773,91.862,412.773,94.438z"/>
		</g>
		<g>
			<polygon fill="#FFFFFF" points="329.694,35.269 329.694,81.558 285.513,35.269 282.658,35.269 282.658,97.929 290.47,97.929 
				290.47,51.225 335.047,97.929 337.506,97.929 337.506,35.269 			"/>
		</g>
	</g>
</g>
</svg>
